<svg width="306" height="259" xmlns="http://www.w3.org/2000/svg">
  <g fill="#FFF" fill-rule="evenodd">
    <text font-family="Futura-Bold, Futura" font-size="18" font-weight="bold" letter-spacing="-.18">
      <tspan x="41" y="258">PRODUTORA DE ÁUDIO</tspan>
    </text>
    <path d="M37.059339 133.972188c-2.685378-3.857695-5.187325-7.852628-7.493208-11.972165L34.826848 122c.39689 0 .768967.099714 1.116245.299145s.620136.473645.81858.82265c.198445.349004.297666.772789.297666 1.271367v9.579026zm0 .349601v10.42596c-4.482456-5.673417-8.56475-11.677584-12.20428-17.969901v-2.384686c0-.698009.223246-1.271365.669746-1.720085.4465-.44872.96741-.673077 1.562744-.673077h2.249378c2.371054 4.243674 4.949772 8.355514 7.722412 12.321789zm0 10.748245v10.593978c-4.387466-4.973697-8.465593-10.226759-12.20428-15.729085v-12.758353c3.64314 6.265331 7.725275 12.243859 12.20428 17.89346zm0 10.896067v9.077223c-4.3302-4.485615-8.406037-9.218393-12.20428-14.175103v-10.577882c3.740879 5.483553 7.818918 10.718753 12.20428 15.675762zm0 9.364999v8.702249c-4.289465-4.101771-8.363772-8.426682-12.20428-12.956093v-9.880542c3.799751 4.9424 7.875532 9.661549 12.20428 14.134386zm0 8.978825v9.238324c-4.257296-3.779161-8.330442-7.761196-12.20428-11.93095v-10.231036c3.841607 4.518027 7.915874 8.832089 12.20428 12.923662zm0 9.50564v8.065545c-4.234307-3.521183-8.306673-7.230424-12.20428-11.114905v-8.855252c3.874657 4.160519 7.947774 8.133747 12.20428 11.904612zm0 8.325572v7.875021c-4.215947-3.300566-8.287714-6.776848-12.20428-10.417823v-8.549916c3.89825 3.876707 7.970595 7.578531 12.20428 11.092718zm0 8.12895v8.541305c-4.20008-3.104986-8.271337-6.374252-12.20428-9.79831v-9.141798c3.917084 3.634314 7.988835 7.104239 12.20428 10.398803zm0 8.78997v7.497352c-4.187865-2.938014-8.25875-6.031438-12.20428-9.271898v-8.007351c3.933363 3.418312 8.004608 6.682095 12.20428 9.781897zm0 7.741623v.924816c0 1.595449-.545715 2.94159-1.63716 4.038461l-3.125486 3.290599c-1.091445 1.096871-2.381316 1.645299-3.86965 1.645299H8.632296c-1.488335 0-2.778205-.548428-3.86965-1.645299l-3.125486-3.290599C.545714 220.668086 0 219.321945 0 217.726496v-29.91453c0-.698009.223247-1.271365.669747-1.720086.351547-.353294.74922-.567505 1.193026-.642637 3.31355 3.72805 6.763321 7.332325 10.341507 10.805017v15.788475c0 .598294.248052 1.121793.744164 1.570513.496111.44872 1.041825.673077 1.63716.673077h7.888131c.595334 0 1.141049-.224357 1.63716-.673077.496111-.44872.744163-.972219.744163-1.570513v-4.498495c3.945882 3.2354 8.016756 6.323994 12.20428 9.25744zM2.106403 185.422219c.041652-.002277.08368-.003416.126087-.003416h7.7393c.190036 0 .372488.022861.547358.068583a196.82298 196.82298 0 0 0 1.618782 1.70253c.044233.195001.06635.402351.06635.62205v8.16346c-3.491072-3.394649-6.85946-6.914813-10.097877-10.553207zm8.845459.233c.20657.108326.400794.25388.582671.436661.193908.194873.34571.413252.455406.655139a196.629278 196.629278 0 0 1-1.038077-1.0918zm73.585103 34.781018c-4.367638-1.788289-8.650475-3.741114-12.840803-5.850767h10.608313c1.488334 0 2.23249 1.34614 2.23249 4.038462v1.812305zm0 .216152v3.356158c0 1.260479-.439178 2.123721-1.317544 2.589733-8.544004-3.414539-16.77951-7.436609-24.653116-12.01281h12.685964c4.331842 2.19275 8.762917 4.217899 13.284696 6.066919zm-1.565525 6.062123c-.395456.162925-.865832.258088-1.411129.285488h-14.64198c-6.612273-3.254756-13.013778-6.872372-19.17853-10.826862.088597-.325984.199649-.556061.333156-.690232.496112-.598294 1.736372-.897436 3.720817-.897436h6.375079c7.918484 4.621633 16.204144 8.682779 24.802587 12.129042zM66.466316 227H53.595615c-2.062213-1.166215-4.101816-2.367744-6.117989-3.603765v-4.174013c0-1.249791.070688-2.197656.212064-2.843601 6.04014 3.87157 12.30714 7.420154 18.776626 10.621379zm-13.276436 0h-3.182098c-1.587556-.099716-2.430933-1.096857-2.530155-2.991453v-.377731c1.883867 1.153339 3.78819 2.276633 5.712253 3.369184zm-4.610649-26.042334c3.418621 2.407957 6.923613 4.701526 10.509409 6.87514-.174326.14395-.348651.250963-.522979.32104-.248055.099716-.545718.174501-.892996.224359-.347278.049858-.620135.074786-.81858.074786-.198444 0-.520912-.024928-.967412-.074786-.4465-.049858-.768968-.074786-.967412-.074786h-5.060312c-1.587556 0-2.232491-1.046998-1.934825-3.141026.205122-1.288384.423493-2.689953.655116-4.20472zm.03376-.220907c.206463-1.3525.423338-2.793953.650628-4.324366a696.700802 696.700802 0 0 0 .359168-2.448301c3.942948 2.898645 8.01071 5.63745 12.193716 8.206848h-.199771c-.694556 0-1.09144.349-1.190662 1.047009-.099222 1.894596-.297664 3.091165-.59533 3.589743-.099223.299147-.27286.573361-.520915.82265a3.382012 3.382012 0 0 1-.064747.063371c-3.628732-2.197958-7.174686-4.518868-10.632087-6.956954zm1.042273-6.997077c.354094-2.449552.694847-4.89909 1.022265-7.348656a673.818987 673.818987 0 0 1 .047686-.356042c10.299192 7.931858 21.535397 14.706823 33.514079 20.130364l.000006.417985c0 .249289-.074416.473646-.22325.673077-.148833.199431-.272859.349003-.372081.448718-.099222.099716-.272859.19943-.520915.299146-.248055.099715-.421692.174501-.520914.224358-.099222.049858-.322469.074787-.669747.074787h-2.158074c-.297667 0-.868186.024928-1.711576.074786-.84339.049858-1.51313.074786-2.009241.074786-.496111 0-1.066631-.074785-1.711576-.224359-.644945-.149573-1.165854-.423787-1.562743-.822649-.39689-.398862-.644941-.897433-.744163-1.495727-.198445-.797724-.347276-1.695151-.446499-2.692307-.099222-.698009-.446495-1.047009-1.041828-1.047009h-8.347439c-4.306575-2.634341-8.49138-5.448235-12.544005-8.431269zm1.1007-7.933516c.345892-2.57052.676698-4.913652.992424-7.029438 3.46164 2.803124 7.040006 5.467805 10.726655 7.985605-.113411.862528-.201072 1.511551-.26298 1.947069-.099223.797724.29766 1.196581 1.19066 1.196581h3.852459c5.14522 3.256453 10.484652 6.233746 15.99701 8.910587l.987108 6.944114v.185041c-11.969039-5.42692-23.195046-12.205-33.483356-20.139575zm1.026762-7.259046c.053733-.35852.107027-.710409.159881-1.055667.259953-1.716755.558126-3.723335.894521-6.019749 3.391518 2.896743 6.907438 5.652095 10.538635 8.256931-.371811 2.944516-.662323 5.214971-.871536 6.811376-3.685143-2.52011-7.261797-5.187226-10.721515-7.992902zm1.088643-7.309263c.347448-2.373873.735052-5.052245 1.162813-8.035128 3.315474 3.004959 6.76542 5.864249 10.339736 8.567769-.36785 2.947604-.691074 5.525058-.969655 7.73238-3.629524-2.607408-7.14354-5.365464-10.532894-8.265021zm1.197073-8.274083c.245685-1.713968.504486-3.52739.776402-5.44027.09736-.684909.192733-1.355225.28612-2.010946 3.247132 3.140856 6.641031 6.130914 10.17041 8.958889a334.937934 334.937934 0 0 0-.038242.306331c-.148833 1.196587-.27286 2.143871-.372081 2.84188-.170667 1.372121-.333505 2.679337-.488515 3.92165-3.572738-2.706617-7.020813-5.569172-10.334094-8.577534zm1.097368-7.695866c.400304-2.810105.763704-5.349187 1.090202-7.617254 6.747027 7.014754 14.225826 13.320556 22.31359 18.794598.417404 2.968561.787688 5.616568 1.110853 7.944033-4.39325-2.723061-8.629546-5.675288-12.692194-8.839987-.243554-1.846867-.446515-3.300619-.608884-4.361264-.198444-1.296303-.396886-1.34616-.59533-.149572l-.148833.897435c-.08382.589655-.18534 1.357198-.304563 2.302649-3.527902-2.831692-6.919958-5.82568-10.164842-8.970636zm1.12635-7.868306c.45571-3.164135.83831-5.791339 1.1478-7.88163 5.993583 6.757872 12.667011 12.899089 19.913094 18.316459.133821.939995.271163 1.908291.412024 2.904885.271057 1.91773.526711 3.730677.766964 5.438844-8.061906-5.471865-15.515975-11.77216-22.239882-18.778558zm1.186093-8.140034a891.091563 891.091563 0 0 1 .119996-.806577c.099222-.89744.223248-1.894581.372082-2.991453.148833-1.096871.297664-2.094012.446498-2.991453.073814-.445089.147629-.914702.221443-1.408843 5.21052 6.452429 11.041853 12.382702 17.4032 17.700022.38055 2.582499.804465 5.51365 1.271747 8.793465-7.218479-5.41362-13.865688-11.547562-19.834966-18.295161zm1.199876-8.467532c.061733-.420645.123465-.858445.185198-1.313404.148833-1.096871.27286-2.094012.372082-2.991453.099222 0 .173637-.249285.223249-.747863.04961-.498578.074416-.897434.074416-1.196581.198445-1.196587.496107-1.894586.892996-2.094017.029264-.029409.144835-.054482.346714-.075217 4.104903 5.581348 8.682814 10.793285 13.674623 15.576702.133625.968031.272103 1.983205.415434 3.045523.320241 2.022955.698487 4.512254 1.13474 7.467917-6.331515-5.31141-12.134738-11.232017-17.319452-17.671607zm2.32866-8.438055c.534103-.036557 1.431967-.054836 2.6936-.054836h3.86965c.197427 0 .591263-.024673 1.18152-.074021 1.334943 1.67834 2.716398 3.318031 4.142413 4.917124.022696.226121.034044.406624.034044.541513.396614 2.391515.888343 5.707066 1.475197 9.946721-4.883141-4.699056-9.367235-9.809843-13.396424-15.276501zm7.985041-.148206c.48747-.037468.881727-.056202 1.18278-.056202.347279 0 .719357.074785 1.116246.224359.39689.149573.694552.37393.892996.673077l.446498 1.794871c0 .299147.024805.598289.074416.897436.049612.299147.099222.648146.148833 1.047009a19.66035 19.66035 0 0 1 .001387.011175c-1.327206-1.495756-2.615455-3.026861-3.863156-4.591725zm10.72435 52.440876c.312445 2.251626.57988 4.197041.802303 5.836255.086281.549168.182983 1.175828.290105 1.879983-4.38451-2.497339-8.631214-5.20881-12.725874-8.120179-.409994-3.361096-.76243-6.164803-1.057313-8.41113 4.062962 3.155844 8.298754 6.099733 12.690778 8.815071zm1.130674 7.968145c.255554 1.684798.567789 3.791111.936706 6.318965.107905.73937.21096 1.442677.309166 2.109922-4.430405-2.325282-8.736388-4.855494-12.905355-7.578039-.392344-3.324105-.74965-6.308894-1.07192-8.954371 4.096961 2.905572 8.345489 5.611474 12.731403 8.103523zm1.281917 8.673647c.381682 2.590259.688302 4.622303.919867 6.096172l.169588 1.193014c-5.367189-2.611846-10.569899-5.508963-15.588448-8.671646H68.7607c.793779 0 1.141052-.398857 1.04183-1.196581-.202763-1.738044-.39764-3.39972-.584631-4.985029 4.171163 2.717693 8.478972 5.243235 12.910872 7.56407zm52.564809-63.846331c-4.101869-1.270363-8.06151-2.864266-11.849097-4.751884a2.4569 2.4569 0 0 1 .016898-.017151c.446501-.44872 1.01702-.673077 1.711576-.673077h7.888132c.595334 0 1.116243.224357 1.562744.673077.4465.44872.669747 1.022076.669747 1.720085v3.04895zm0 .209402v7.092016c-4.313774-1.217624-8.490553-2.761858-12.501946-4.60431v-5.746058c0-.611889.171558-1.127988.514677-1.548306 3.830222 1.912175 7.83622 3.524636 11.987269 4.806658zm0 7.299864v7.045678c-4.295166-1.114174-8.470275-2.526326-12.501946-4.213076v-7.424673c4.012049 1.837583 8.188773 3.377682 12.501946 4.592071zm0 7.252333v7.009673c-4.280542-1.027491-8.454396-2.329188-12.501947-3.885475l.000001-7.327115c4.032178 1.682705 8.207246 3.09143 12.501946 4.202917zm0 7.215389v6.981115c-4.268771-.953697-8.441655-2.1615-12.501946-3.606705v-7.2513c4.047954 1.552868 8.221776 2.851671 12.501946 3.87689zm0 7.18608v6.015692c-4.259445-.877305-8.431636-1.993536-12.501946-3.334065v-6.280968c4.060618 1.442266 8.233477 2.647592 12.501946 3.599341zm0 6.219923v6.046177c-4.251566-.810448-8.423185-1.846337-12.501946-3.094757v-6.279111c4.070583 1.337979 8.242754 2.452065 12.501946 3.327691zm0 6.249809v6.910363c-4.244649-.762274-8.415745-1.736464-12.501946-2.911228v-7.088326c4.078992 1.246186 8.250594 2.280204 12.501946 3.089191zm0 7.113592v5.958516c-4.238907-.707953-8.409614-1.617337-12.501946-2.717978v-6.146854c4.086396 1.172792 8.257479 2.145331 12.501946 2.906316zm0 6.161314v5.977571c-8.786335-1.368173-17.299079-3.562889-25.456228-6.502143l-2.093063-7.220172c4.515068 1.81905 9.153299 3.396748 13.898713 4.717113l.553302 1.908582c.198444.598294.347275.872508.446498.82265.099222-.049858.148832-.373929.148832-.972222v-1.445008c4.092501 1.098889 8.263196 2.006811 12.501946 2.713629zm0 6.180007v5.923582c-8.021406-1.165643-15.829067-2.9908-23.366205-5.418689l-2.021163-6.972096c8.136942 2.92227 16.626413 5.105018 25.387368 6.467203zm0 6.125706v5.950532c-7.283647-.989902-14.401535-2.501242-21.314829-4.495183l-1.98416-6.844401c7.516869 2.41355 15.301899 4.2286 23.298989 5.389052zm0 6.152392v6.859508c-6.475093-.839818-12.826696-2.073141-19.030039-3.675197l-2.218928-7.654208c6.893004 1.98178 13.988782 3.484531 21.248967 4.469897zm0 7.061203v5.891587c-5.788416-.703754-11.483439-1.710216-17.068762-3.00308l-1.896542-6.542115c6.183045 1.591813 12.512963 2.817832 18.965304 3.653608zm0 6.093078v5.9207c-5.11474-.583898-10.160296-1.395582-15.126273-2.424658l-1.878694-6.480552c5.56507 1.284137 11.238751 2.284333 17.004967 2.98451zm0 6.122016v4.373045c0 .598294-.223247 1.121793-.669747 1.570513-.393963.395921-.845854.617172-1.355684.663758-3.638818-.441095-7.243479-.992984-10.81051-1.652191-.107023-.18545-.194135-.379477-.261335-.58208l-1.965999-6.781708c4.945771 1.021647 9.970276 1.827948 15.063275 2.408663zm-3.556499 6.616635h-6.564124c-.694556 0-1.314686-.224357-1.860408-.673077-.282884-.232601-.519109-.485296-.708677-.758086 3.018252.554492 6.063354 1.032245 9.133209 1.431163zm-24.063618-52.340096l-1.997588-6.890674c-.03674-.22154-.076882-.398646-.120425-.531316 4.549073 2.062881 9.241785 3.864581 14.058996 5.385964l1.963068 6.771522c-4.747711-1.325826-9.387748-2.90968-13.904051-4.735496zm-2.485871-7.589516c-.071365.151318-.107047.434122-.107047.848415v5.6605c-4.288911-1.841395-8.460964-3.902886-12.501946-6.170258v-6.991225c4.060187 2.444476 8.268753 4.667569 12.608993 6.652568zm-.107047 6.726594v6.513132c-4.277342-1.722821-8.448818-3.65313-12.501963-5.778463l.000017-6.893288c4.041365 2.263093 8.213407 4.320689 12.501946 6.158619zm0 6.728777v6.409585c-4.26764-1.617418-8.43864-3.431312-12.501957-5.430639l.000011-6.747215c4.053463 2.121585 8.224922 4.048483 12.501946 5.768269zm0 6.623513v6.38944c-4.259369-1.523353-8.42997-3.233352-12.501953-5.120151l.000007-6.690939c4.063589 1.996018 8.234574 3.8069 12.501945 5.42164zm0 6.601879v7.201793c-4.251922-1.444442-8.422157-3.065685-12.50195-4.854975l.000004-7.458956c4.072217 1.883853 8.242807 3.591173 12.501946 5.112138zm0 7.413061v6.261535c-4.245813-1.367525-8.41577-2.904064-12.501946-4.601695v-6.507663c4.079994 1.786658 8.250221 3.405508 12.501945 4.847818zm0 6.471696v6.259112c-4.240453-1.297609-8.410171-2.75713-12.501948-4.371355l.000002-6.483006c4.086355 1.695258 8.256304 3.229641 12.501945 4.595246zm0 6.46831v7.097621c-4.235517-1.239623-8.405007-2.633855-12.501947-4.176172l.000001-7.286949c4.091932 1.612059 8.261643 3.069626 12.501946 4.3655zm0 7.306055v3.346137c0 .598294-.223247 1.121793-.669747 1.570513-.398055.400034-.855248.62175-1.37159.665153a180.946456 180.946456 0 0 1-10.46061-3.399334l.000001-6.353321c4.097077 1.54035 8.266561 2.932806 12.501946 4.170852zm-2.724414 5.589727H94.21109c-.595334 0-1.116243-.224357-1.562744-.673077-.4465-.44872-.669747-.972219-.669747-1.570513v-.951125a181.153044 181.153044 0 0 0 9.777532 3.194715zm-9.777532-66.815732v-8.021095c7.658877 4.990414 15.924849 9.127179 24.662951 12.275329l2.305948 7.954364c-9.52818-3.020368-18.567404-7.139491-26.968899-12.208598zm0-8.259917v-7.396953c6.95659 4.942622 14.493868 9.121345 22.489518 12.413853l2.104568 7.259704c-8.714481-3.151717-16.95736-7.288769-24.594086-12.276604zm0-7.642422v-7.595286c6.232308 4.874541 13.015654 9.077016 20.241014 12.4984l2.177242 7.510391c-7.971145-3.29562-15.484524-7.474082-22.418256-12.413505zm0-7.84935v-8.8296c5.378795 4.708832 11.263717 8.853769 17.562504 12.342549l2.60408 8.982766c-7.199678-3.423828-13.95806-7.625254-20.166584-12.495715zm0-9.095617v-2.644655c0-.698009.223247-1.271365.669747-1.720085S93.615756 122 94.21109 122h2.33632c3.18816 2.794236 6.56772 5.375425 10.116451 7.721339l2.798192 9.652357c-6.271359-3.490052-12.129764-7.632599-17.483453-12.335879zM96.85127 122h5.396784c.595334 0 1.190659.224357 1.785993.673077.595333.44872.942606.972219 1.041828 1.570513l1.501868 5.180689c-3.405861-2.263808-6.654632-4.74518-9.726473-7.424279zm84.274788 5.627542c-7.25464 2.182845-14.946598 3.355932-22.912544 3.355932-4.462783 0-8.839571-.368186-13.101646-1.075838v-5.664046c0-.431063.115887-.8233.347665-1.176716 4.140689.733786 8.402629 1.1166 12.753981 1.1166 5.805029 0 11.450929-.681315 16.862097-1.968344.858525.253206 1.636172.729927 2.332949 1.430169l3.125487 3.290598c.219386.220477.416723.451026.592011.691645zm.12076.172549c.616261.917333.924388 1.975417.924388 3.174268v3.644352c-3.958768 1.140149-8.034224 2.004855-12.20428 2.572033v-.532624c0-.598294-.248052-1.146721-.744163-1.645299-.496112-.498578-1.041826-.747864-1.63716-.747864h-7.888132c-.595334 0-1.141048.249286-1.63716.747864-.496111.498578-.744163 1.047005-.744163 1.645299v1.32079c-4.144512-.042173-8.219127-.376157-12.20428-.982387v-6.886125c4.262401.705861 8.63914 1.073076 13.101646 1.073076 8.009092 0 15.741914-1.182849 23.033304-3.383383zm.924388 7.026783v7.055486c-3.970613 1.050697-8.044899 1.846454-12.20428 2.368693v-6.858448c4.169718-.565785 8.245136-1.428353 12.20428-2.565731zm0 7.262405v7.01798c-3.980237.974446-8.053613 1.711581-12.20428 2.195554v-6.850172c4.159108-.52106 8.233365-1.315011 12.20428-2.363362zm0 7.223922v6.988247c-3.988199.90864-8.060854 1.595294-12.20428 2.046279v-6.843542c4.150441-.482964 8.223795-1.218552 12.20428-2.190984zm0 7.193407v5.795052c-3.993206.879207-8.065376 1.547892-12.20428 1.993825v-5.746562c4.143237-.450109 8.215874-1.135424 12.20428-2.042315zm0 5.999877v5.862108c-3.997725.851106-8.069478 1.502139-12.20428 1.942119v-5.814055c4.138737-.445114 8.210891-1.112566 12.20428-1.990172zm0 6.066624v6.937345c-4.002985.80272-8.074316 1.416341-12.20428 1.831152v-6.829751c4.134653-.439213 8.206393-1.089109 12.20428-1.938746zm0 7.141359v5.791017c-4.006386.782124-8.077423 1.383546-12.20428 1.795434v-5.758293c4.129835-.414131 8.201155-1.026743 12.20428-1.828158zm0 5.994824v5.832225c-4.009495.762474-8.080274 1.351978-12.20428 1.760455v-5.800046c4.126741-.411244 8.197768-1.011723 12.20428-1.792634zm0 6.035841v5.783402c-4.012269.745305-8.082825 1.324689-12.20428 1.730764v-5.756335c4.123901-.407866 8.194672-.996488 12.20428-1.757831zm0 5.986854v5.82905c-4.014832.728672-8.08519 1.297967-12.20428 1.701093v-5.801849c4.121359-.405495 8.191908-.984047 12.20428-1.728294zm0 6.032348v6.905979c-4.017944.695483-8.088092 1.238627-12.20428 1.623268v-6.830483c4.119003-.402573 8.189353-.971085 12.20428-1.698764zm0 7.108983v5.776386c-8.957434 1.521352-18.16311 2.313625-27.553831 2.313625-3.190691 0-6.36002-.091463-9.505507-.271911v-5.822155c3.315126.208115 6.658054.313739 10.025652.313739.727371 0 1.45359-.004928 2.178628-.014752v2.874485c0 .598294.248052 1.146721.744163 1.645299.496112.498578 1.041826.747863 1.63716.747863h7.888132c.595334 0 1.141048-.249285 1.63716-.747863.496111-.498578.744163-1.047005.744163-1.645299v-3.548269c4.116109-.384138 8.186252-.92657 12.20428-1.621148zm0 5.979279v4.873899c0 .329869-.023328.649081-.069985.957636-9.102751 1.513074-18.450856 2.300348-27.98284 2.300348-3.021297 0-6.024121-.079094-9.006513-.235326v-5.857402c3.145518.180227 6.314844.271577 9.505507.271577 9.39043 0 18.596052-.791256 27.553831-2.310732zm-.105396 6.040183c-.206664 1.096226-.717249 2.053613-1.531763 2.872177l-3.125487 3.290599c-1.091445 1.096871-2.381315 1.645299-3.869649 1.645299h-26.194553c-.595334 0-1.116243-.224357-1.562743-.673077-.446501-.44872-.669747-.972219-.669747-1.570513v-3.507832c2.982418.156047 5.98524.235047 9.006513.235047 9.519347 0 18.855519-.784262 27.947429-2.2917zm-36.953942-10.223918v-6.813381c3.313913.217818 6.6571.328444 10.026124.328444a153.6525 153.6525 0 0 0 2.178156-.015431v6.799738a160.606221 160.606221 0 0 1-2.178628.01477c-3.367633 0-6.710563-.10576-10.025652-.31414zm0-7.01382v-5.870893c3.475965.250091 6.985964.377297 10.525673.377297.560286 0 1.119827-.003187 1.678607-.009544v5.816572a153.458072 153.458072 0 0 1-2.178156.015451c-3.369062 0-6.712252-.110776-10.026124-.328883zm0-6.071419v-5.835408c3.644728.287436 7.329112.433881 11.047701.433881.385896 0 .771425-.001578 1.156579-.004726v5.774519a147.372831 147.372831 0 0 1-1.678607.009557c-3.539755 0-7.049758-.127386-10.525673-.377823zm0-6.03604v-5.882322c3.805989.328435 7.657958.496066 11.549079.496066.218524 0 .436925-.000529.655201-.001585v5.817622a141.330899 141.330899 0 0 1-1.156579.004732c-3.718645 0-7.403034-.146661-11.047701-.434513zm0-6.083078v-5.852447c3.973131.375828 7.999733.568031 12.071226.568031.044357 0 .088708-.000022.133054-.000068v5.779718a135.176111 135.176111 0 0 1-.655201.001588c-3.891189 0-7.743165-.167891-11.549079-.496822zm0-6.053355v-6.826425c3.970828.398084 7.998912.601946 12.074611.601946.043228 0 .086451-.000023.129669-.000069v6.793419a128.26965 128.26965 0 0 1-.133054.000068c-4.071575 0-8.098186-.192515-12.071226-.568939zm0-7.027445v-5.918367c4.008961.441467 8.080754.674274 12.20428.687323v5.833941a121.826906 121.826906 0 0 1-.129669.000069c-4.075792 0-8.103887-.204213-12.074611-.602966zm0-6.119596v-5.870243c4.004403.486097 8.076644.752226 12.20428.785944v5.772849c-4.123634-.013072-8.19544-.246301-12.20428-.68855zm0-6.071735v-6.854297c3.999099.520114 8.071956.805371 12.20428.841478v6.800248c-4.12776-.033781-8.200018-.300422-12.20428-.787429zm0-7.056007v-6.86259c3.992851.559267 8.066472.866622 12.20428.905484v6.800286c-4.132469-.036181-8.205345-.322024-12.20428-.84318zm0-7.064572v-6.872948c3.985387.604818 8.059972.938001 12.20428.980074v6.800331c-4.137978-.038947-8.211623-.346984-12.20428-.907457zm.478446-21.184962c.058417-.073044.122184-.144296.191301-.213756.4465-.44872.967409-.673077 1.562743-.673077h26.194553c.383861 0 .754521.036481 1.111979.109443-5.280932 1.225942-10.783469 1.874031-16.437376 1.874031-4.305868 0-8.523943-.375888-12.6232-1.096641zm84.000797 94.542766c-8.314272 3.815863-16.964912 7.024899-25.895211 9.570401h-8.57625c-1.587557-.099716-2.430934-1.096857-2.530156-2.991453v-.028815c10.228869-2.272603 20.123751-5.43232 29.599755-9.394258l5.227093-.000004c1.249015 0 1.973933.948035 2.174769 2.844129zm.019861.210981c.02524.304954.037861.632738.037861.983352v5.158818c-2.531648 1.127097-5.092751 2.200005-7.681829 3.21725h-17.546207c8.680227-2.510374 17.094355-5.647583 25.190175-9.35942zm.037861 6.361126v.006841c0 1.894596-.992208 2.891737-2.976654 2.991453h-4.15999c2.403489-.951852 4.782772-1.95168 7.13665-2.998296zm-37.059339-.2269v-4.552584c0-1.01768.04687-1.835167.14061-2.452465 2.82646-.658078 5.625784-1.386828 8.396008-2.184287h20.542827c-9.316996 3.865508-19.036988 6.955465-29.079445 9.189336zm.176413-7.218802c.09844-.533662.238079-.89136.418918-1.073098.496111-.598294 1.736371-.897436 3.720817-.897436h3.492038c-2.52051.714222-5.064926 1.371559-7.631773 1.970534zm.363542-11.982653c11.992282-2.968203 23.442995-7.309574 34.175689-12.847664.351873 2.382722.636994 4.269021.855368 5.658928l.017257.121402c-3.779042 1.908792-7.642319 3.675101-11.58277 5.291866-.16361-.417964-.475752-.626943-.936433-.626943h-8.929961c-.694556 0-1.091439.349-1.190661 1.047009-.099223 1.894596-.297664 3.091165-.595331 3.589743-.034109.102836-.077011.202724-.128708.299667a162.0822 162.0822 0 0 1-4.044459 1.246341c-.329493-.033521-.575595-.050281-.738312-.050281h-5.060311c-1.587556 0-2.232492-1.046998-1.934825-3.141026a562.292493 562.292493 0 0 0 .093457-.589042zm.033876-.214492c.338363-2.144954.710951-4.582273 1.117772-7.312007 11.219092-3.011472 21.920959-7.28631 31.943731-12.662643.197618 1.323795.421151 2.84031.6706 4.549552.133726.916299.260004 1.777212.378834 2.582738-10.712113 5.533378-22.141098 9.872837-34.110937 12.84236zm1.149911-7.527792c.020663-.13881.041413-.278368.06225-.418674a695.930934 695.930934 0 0 0 .826844-5.731283c4.219852-1.197968 8.361111-2.582784 12.414267-4.144938-.127904.976027-.225459 1.700436-.292667 2.17323-.099222.797724.297661 1.196581 1.190661 1.196581h5.357977c.793778 0 1.141051-.398857 1.041829-1.196581-.201655-1.728547-.395509-3.381558-.581564-4.959034 3.752837-1.669127 7.421416-3.493403 10.997592-5.464681.107715.785061.20769 1.517467.299925 2.197219.154347.98239.342039 2.212761.563078 3.691126-10.002566 5.371635-20.683116 9.644467-31.880192 12.657035zm.919386-6.366542a693.742836 693.742836 0 0 0 .556775-4.073499c.093062-.69624.185046-1.376233.275952-2.039981 4.218421-1.266142 8.352256-2.727839 12.390976-4.374559-.339582 2.687697-.609641 4.79898-.810178 6.333855-4.052675 1.565501-8.193698 2.95341-12.413525 4.154184zm.862608-6.331349c.310841-2.263287.609015-4.335644.894528-6.217105 4.196174-1.338392 8.301594-2.880057 12.304682-4.613419-.302808 2.422511-.572587 4.571179-.809338 6.446008-4.038089 1.650321-8.171569 3.115349-12.389872 4.384516zm.928099-6.437835a326.697936 326.697936 0 0 1 .031146-.203888c.25989-1.716343.557983-3.722372.894279-6.018097 4.166051-1.416134 8.234563-3.043316 12.1928-4.868807-.050616.382628-.096828.720997-.138636 1.015109-.242339 1.948352-.468894 3.765838-.679665 5.452461-4.001254 1.736827-8.105099 3.281772-12.299924 4.623222zm.957992-6.444396c.330758-2.259736.697938-4.795655 1.10154-7.607766 7.968196-2.980431 15.533461-6.786397 22.591716-11.313813.324672 2.240013.675473 4.690097 1.052404 7.350255-3.441666 2.091322-6.991128 4.022907-10.638097 5.784466-.238563-1.806425-.437775-3.231774-.597639-4.276053-.198444-1.296303-.396886-1.34616-.595331-.149572l-.148832.897435c-.099223.69801-.223249 1.645294-.372082 2.841881-.073594.591677-.141122 1.1224-.202586 1.592171-3.957319 1.829884-8.02528 3.461146-12.191093 4.880996zm1.133935-7.833528c.26494-1.84676.545426-3.811397.841456-5.893913.025193-.177229.050254-.353482.075181-.528757 7.313622-2.940967 14.250515-6.620996 20.718233-10.947629.271359 1.810303.568998 3.8319.89292 6.064795-7.037983 4.521952-14.58181 8.32502-22.527779 11.3055zm.949175-6.65144c.328647-2.310404.633949-4.449356.915905-6.416859 6.653867-2.885156 12.958994-6.423026 18.834606-10.532836.052563.386473.105821.77962.159766 1.179444.220128 1.390537.467661 3.001418.742602 4.832648-6.44705 4.320549-13.362026 7.997103-20.65286 10.937596zm.949241-6.649439c.445399-3.106938.831772-5.780392 1.159122-8.020378 5.851261-2.847068 11.385158-6.24481 16.534279-10.125812.319127 2.151988.678297 4.692987 1.077513 7.623016-5.855428 4.104016-12.139203 7.638544-18.770914 10.523174zm1.194156-8.259997c.187253-1.280098.354682-2.414613.502289-3.40355.099222-.89744.223248-1.894581.372081-2.991453.088953-.655563.177905-1.275502.266857-1.859824 5.027426-2.772546 9.77265-5.993896 14.181664-9.610037l.211499.850203c0 .299147.024805.598289.074416.897436.049611.299147.099222.648146.148833 1.047009.049611.398862.074416.698004.074416.897436.18952 1.14277.400757 2.496529.633714 4.061284-5.127578 3.873445-10.638503 7.266279-16.465769 10.111496zm1.179581-8.504563c.047096-.303948.094192-.597912.141287-.881893.148834-.89744.297665-1.894581.446499-2.991453.148833-1.096871.272859-2.094012.372081-2.991453.099223 0 .173638-.249285.223249-.747863.041462-.416674.065597-.763699.072408-1.041082 1.21048-.770286 2.400538-1.569807 3.569181-2.397567.189956-.001015.390003-.001522.600143-.001522h3.86965c.198444 0 .595327-.024928 1.190661-.074786.595334-.049858 1.066633-.074786 1.413911-.074786s.719356.074785 1.116245.224359c.396889.149573.694551.37393.892996.673077l.181542.729778c-4.380891 3.600485-9.095291 6.809997-14.089853 9.575191zm1.273345-8.902325c.198308-1.13976.4907-1.806732.877184-2.000935.082846-.083258.857406-.131757 2.323699-.145498-1.050011.738509-2.117212 1.454227-3.200883 2.146433zm18.096751 35.445449c.039528.279111.079342.560516.119441.844214.252101 1.783619.490879 3.476599.716333 5.07894-3.480989 2.043983-7.063682 3.933402-10.738651 5.658829-.277218-2.23636-.523289-4.171078-.738212-5.804156 3.647729-1.759575 7.198177-3.688935 10.641089-5.777827zm.865915 6.137393c.30221 2.148343.580225 4.132093.834047 5.951256-3.527431 2.005271-7.15161 3.86-10.863799 5.555446-.256828-2.136104-.494552-4.087196-.713171-5.853276 3.676208-1.723792 7.260316-3.611401 10.742923-5.653426zm.863784 6.164423c.307372 2.203808.578729 4.162605.814071 5.876399-3.574495 1.972837-7.241545 3.798561-10.992986 5.469009-.243292-2.061671-.473147-3.993224-.689567-5.794662 3.713594-1.694015 7.339327-3.547169 10.868482-5.550746zm3.720281 25.518184l.830698 5.843796c-3.279123 1.619603-6.618214 3.136203-10.013047 4.545574-.451205-.15929-.829231-.392119-1.134085-.698489-.39689-.398862-.644942-.897433-.744164-1.495727-.198444-.797724-.347276-1.695151-.446498-2.692307-.011509-.080962-.026355-.157229-.044538-.2288 3.929509-1.611817 7.782381-3.372161 11.551634-5.274047zm.860331 6.05226l.283351 1.993322v.822649c0 .249289-.074415.473646-.223249.673077-.148833.199431-.272859.349003-.372081.448718-.099223.099716-.272859.19943-.520915.299146-.248056.099715-.421692.174501-.520914.224358-.099223.049858-.322469.074787-.669747.074787h-2.158074c-.297667 0-.868187.024928-1.711576.074786-.84339.049858-1.51313.074786-2.009241.074786-.496112 0-1.066631-.074785-1.711576-.224359a4.27721 4.27721 0 0 1-.129187-.032066c3.301865-1.376322 6.550897-2.854019 9.743209-4.429204zm-24.422008 3.604222c-.066364.089046-.141069.175299-.224115.258758-.248056.249289-.496108.423789-.744164.523504-.248056.099716-.545718.174501-.892996.224359-.347278.049858-.620135.074786-.81858.074786-.152494 0-.378226-.01472-.677199-.044162a162.286463 162.286463 0 0 0 3.357054-1.037245zm65.7921-77.696522c-5.123705 7.483552-10.963367 14.43826-17.420286 20.765422l2.676806-10.711546c4.913085-5.51603 9.372247-11.445218 13.318857-17.728938h1.118038c.595334 0 1.066632.224357 1.41391.673077s.421694.972219.223249 1.570513l-1.330574 5.431472zm-.13438.548546l-3.223032 13.156579c-7.846512 9.514885-16.887965 18.007675-26.89467 25.24868l-1.371911-5.778941c3.758438-2.796527 7.370333-5.778984 10.822073-8.933758L250.336576 157c.099222.598294.248053.897436.446498.897436s.396886-.299142.595331-.897436l1.546725-6.189397c6.432842-6.274244 12.25786-13.168793 17.378398-20.586995zm-3.332266 13.602476l-2.774802 11.326884c-6.8554 7.216405-14.419542 13.75307-22.580887 19.498457l-1.379733-5.811881c9.935334-7.18073 18.921775-15.59318 26.735422-25.01346zm-2.870466 11.717388l-3.058104 12.483336c-5.549478 5.050201-11.461384 9.709088-17.69211 13.933053l-1.68526-7.098868c8.101697-5.697005 15.61642-12.172407 22.435474-19.317521zm-3.143238 12.830855l-2.237608 9.134029c-4.621344 3.824798-9.45673 7.40008-14.485514 10.705203v-.401593c0-1.59545-.198442-3.141018-.595331-4.636752l-.239111-1.007216c6.179493-4.184917 12.046145-8.796935 17.557564-13.793671zm-2.317295 9.459318l-1.308551 5.341569c-.273025 1.028934-.45214 2.081451-.537347 3.157566-4.047264 3.088639-8.23781 5.999082-12.559929 8.71962v-6.599547c4.999211-3.279954 9.807886-6.826423 14.405827-10.619208zm-1.865021 8.765213c-.025907.401114-.038861.805483-.038861 1.213108v7.266119c-4.043167 2.89659-8.213829 5.626541-12.501945 8.179812v-7.969199c4.31489-2.711528 8.499027-5.61201 12.540806-8.68984zm-.038861 8.725203v6.700717c-4.052227 2.783367-8.222544 5.40726-12.501898 7.862626l-.000047-6.396749c4.28777-2.549154 8.45842-5.274686 12.501945-8.166594zm0 6.943312v6.675552c-4.060233 2.679455-8.230282 5.205982-12.501945 7.571378v-6.396292c4.279069-2.451629 8.449391-5.071515 12.501945-7.850638zm0 6.915149v8.083734c-4.069074 2.550625-8.238809 4.955508-12.50189 7.207333a2.397866 2.397866 0 0 1-.000055-.016324v-7.714341c4.271423-2.361988 8.441451-4.88484 12.501945-7.560402zm0 8.319762v6.474528a201.2363 201.2363 0 0 1-4.637926 2.724043h-5.631529c-.595334 0-1.116243-.224357-1.562743-.673077-.386737-.38866-.605985-.833419-.657748-1.33429 4.2587-2.246943 8.424439-4.646435 12.489946-7.191204zm0 6.708321v.24666c0 .598294-.223246 1.121793-.669747 1.570513-.4465.44872-1.01702.673077-1.711576.673077h-1.853009a201.439793 201.439793 0 0 0 4.234332-2.49025zm-17.972773-61.572586l-1.392664-5.866359c3.768184-2.895624 7.376342-5.989181 10.808923-9.265119l1.405138 6.18521c-3.451018 3.159291-7.062708 6.145939-10.821397 8.946268zm-1.443315-6.079717l-1.387871-5.846171c3.777533-3.004933 7.379402-6.221248 10.787712-9.631051l1.408082 6.198215c-3.431653 3.280942-7.039509 6.379159-10.807923 9.279007zm-1.438915-6.061182l-1.744479-7.348321c3.784402-3.183678 7.368624-6.597658 10.731077-10.220352l1.799745 7.922076c-3.407167 3.41542-7.008609 6.636947-10.786343 9.646597zm-1.796209-7.566223l-1.432891-6.03581c3.792662-3.335494 7.361078-6.91989 10.679722-10.727663l1.482299 6.524747c-3.360933 3.62933-6.944545 7.049476-10.729124 10.238721zm-1.485213-6.256207l-1.425628-6.005212c2.958501-2.730727 5.763423-5.625356 8.40036-8.669478h.492433c.595333 0 1.165853.224357 1.711575.673077.545723.44872.917801.972219 1.116246 1.570513l.382176 1.682256c-3.316716 3.815425-6.884331 7.406934-10.677154 10.748838zm-1.478643-6.228531l-1.47248-6.202569c-.099223-.598294.024803-1.121793.372081-1.570513S230.839491 122 231.434825 122h7.875072c-2.574365 2.962271-5.308354 5.782118-8.188573 8.446149zm24.677853 8.863658l3.076857-12.3124c1.215167-1.635919 2.391794-3.302172 3.528538-4.997417h6.372448c-3.855898 6.126396-8.200046 11.914535-12.977843 17.309817zm3.203759-12.820211l.561277-2.246016c.099223-.598294.42169-1.121793.967413-1.570513.52109-.428466 1.064789-.652366 1.631112-.671706-1.021461 1.5198-2.075053 3.016203-3.159802 4.488235zm10.255641 89.499813a202.21404 202.21404 0 0 0 1.670816-1.200729c.607294-.13548 1.383101-.20322 2.327427-.20322h30.510701c1.488334 0 2.23249 1.34614 2.23249 4.038462v5.384615c0 1.894596-.992208 2.891737-2.976654 2.991453h-31.552529c-1.587556-.099716-2.430933-1.096857-2.530156-2.991453v-4.786325c0-1.530213.105968-2.607809.317905-3.232803zm.165648-.363547c.035324-.055921.072584-.103576.111778-.142966.178715-.215524.453995-.392228.825843-.530113a201.968624 201.968624 0 0 1-.937621.673079zm.954828-7.487414c11.50269-8.63074 22.02309-18.499594 31.363413-29.408775.084754.618872.164441 1.20328.239063 1.753223.205938 1.310764.47124 3.062997.795908 5.256728-5.173346 5.787788-10.67629 11.274721-16.47934 16.431306h-3.218319c-.694556 0-1.09144.349-1.190662 1.047009-.074445 1.421487-.204743 2.450035-.390897 3.08566a202.40718 202.40718 0 0 1-2.561761 2.101496c-.254092.031925-.460533.047886-.619326.047886-.198445 0-.520913-.024928-.967413-.074786-.4465-.049858-.768968-.074786-.967412-.074786h-5.060312c-.363819 0-.678133-.054987-.942942-.164961zm-.200797-.099424c-.738699-.431265-1.002392-1.390141-.791085-2.876641.275013-1.727381.573844-3.658221.896497-5.79255 4.705981-3.736503 9.229384-7.693035 13.554655-11.854043-.066457.497791-.120862.895657-.163215 1.193602-.099222.797724.297661 1.196581 1.190662 1.196581h5.357976c.793779 0 1.141051-.398857 1.041829-1.196581-.325148-2.787108-.630017-5.377837-.914609-7.772188 3.515724-3.728988 6.881162-7.601227 10.086632-11.607036.502955 3.589758.925796 6.634518 1.268528 9.134303-9.381416 10.977282-19.957857 20.902616-31.52787 29.574553zm.149264-8.95955c.129274-.856795.262323-1.745825.399145-2.667091a696.058492 696.058492 0 0 0 .783033-5.418914c4.712457-3.989693 9.219929-8.214023 13.50438-12.654954-.514847 4.08919-.892644 7.042105-1.133396 8.858769-4.323981 4.170819-8.846912 8.136759-13.553162 11.88219zm1.223917-8.383579a693.843035 693.843035 0 0 0 .589138-4.304879c.183129-1.370067.362083-2.677224.536865-3.921478 4.752713-4.307757 9.269767-8.870788 13.529521-13.66745-.438194 3.519957-.82191 6.588232-1.151147 9.204831-4.283413 4.452834-8.79092 8.68854-13.504377 12.688976zm1.169598-8.536021c.235866-1.671607.464071-3.227746.684618-4.668431.269575-1.7803.580252-3.872277.932033-6.275943 8.386931-8.427844 15.893539-17.73253 22.37029-27.764523.415309 2.708578.906351 6.026041 1.473132 9.95242-3.045497 4.301198-6.278772 8.460035-9.687884 12.46457-.262271-1.999043-.479204-3.559022-.650801-4.679943-.198444-1.296303-.396886-1.34616-.59533-.149572l-.148833.897435c-.099222.69801-.223248 1.645294-.372082 2.841881-.148833 1.196587-.272859 2.143871-.372081 2.84188-.03482.279943-.069314.557184-.103482.831724-4.258418 4.811044-8.775541 9.387808-13.52958 13.708502zm1.66532-11.277118c.398372-2.725188.848345-5.841662 1.349921-9.349439 7.441069-8.192072 14.062439-17.142179 19.734564-26.720778.262704 1.844317.54772 3.905374.855046 6.183177.105774.668166.217875 1.387206.336304 2.157122-6.447908 10.016565-13.922782 19.309466-22.275835 27.729918zm1.400451-9.702926c.167986-1.175485.34168-2.394263.521084-3.656336.317658-2.234662.614163-4.313969.889513-6.237924 6.446833-7.883104 12.145093-16.402227 16.98628-25.448868.044321.276746.088641.593281.132962.949613.049611.398862.074417.698004.074417.897436.292964 1.766528.637826 4.037233 1.03459 6.812143-5.642892 9.562549-12.232118 18.500137-19.638846 26.683936zm1.465517-10.277899c.773317-5.400528 1.376304-9.550154 1.808972-12.44895.053219-.48135.113573-.991382.181064-1.530101 3.230711-4.689294 6.202524-9.57075 8.894798-14.623729l.895928-.000016c.198445 0 .595328-.024928 1.190661-.074786.595334-.049858 1.066633-.074786 1.413911-.074786s.719356.074785 1.116245.224359c.396889.149573.694552.37393.892996.673077l.446498 1.794871c0 .221054.013545.442105.040635.663158-4.809824 9.025197-10.472952 17.526724-16.881708 25.396903zm2.045063-14.412356c.042761-.332353.088091-.675035.135991-1.028047.148833-1.096871.297664-2.094012.446498-2.991453.148833-.89744.297664-1.894581.446498-2.991453.148833-1.096871.272859-2.094012.372082-2.991453.099222 0 .173637-.249285.223249-.747863.049611-.498578.074416-.897434.074416-1.196581.198445-1.196587.496107-1.894586.892996-2.094017.099222-.099716 1.190651-.149573 3.274319-.149573h2.747026c-2.61421 4.898087-5.491523 9.634518-8.613075 14.19044zm18.925181 17.20118c.312463 2.166831.647648 4.516347 1.005557 7.048551.026356.186469.052566.371947.078631.556434-3.123287 4.141434-6.419052 8.145477-9.876615 12.001451-.343223-2.799702-.643863-5.187011-.90192-7.161935 3.410658-3.99809 6.64607-8.15022 9.694347-12.444501zm1.123689 7.884605c.382822 2.71023.733872 5.204317 1.05315 7.482267-3.202617 4.010448-6.5656 7.887214-10.079235 11.620585-.310271-2.608358-.596189-4.980876-.857755-7.117556 3.459503-3.850763 6.757663-7.849409 9.88384-11.985296zm3.469251 24.421682c.133885.905911.277585 1.884813.431099 2.936709.545723 3.739335.967411 6.556258 1.265078 8.450854l1.190662 8.376069v.822649c0 .249289-.074416.473646-.223249.673077-.148834.199431-.27286.349003-.372082.448718-.099222.099716-.272859.19943-.520915.299146-.248055.099715-.421692.174501-.520914.224358-.099222.049858-.322469.074787-.669747.074787h-2.158074c-.297667 0-.868186.024928-1.711576.074786-.843389.049858-1.51313.074786-2.009241.074786-.496111 0-1.066631-.074785-1.711576-.224359-.644945-.149573-1.165854-.423787-1.562743-.822649-.396889-.398862-.644941-.897433-.744164-1.495727-.198444-.797724-.347275-1.695151-.446498-2.692307-.099222-.698009-.446495-1.047009-1.041828-1.047009h-5.410732c5.705524-5.081266 11.120377-10.481915 16.2165-16.173888zm-21.453368 20.680133c-.022171.047815-.044956.091317-.068354.130507-.099222.299147-.272858.573361-.520914.82265-.248056.249289-.496108.423789-.744164.523504-.201515.081007-.435769.145561-.702766.193664a202.615977 202.615977 0 0 0 2.036198-1.670325z" fill-rule="nonzero"/>
    <path d="M149.695965 99.897999c-19.308373-1.226147-35.642938-13.377887-42.870363-30.331313 15.070787-1.67632 26.321465.46786 33.810293 6.330749 6.682319 5.231486 9.718614 13.175367 9.06007 24.000564zm-44.109876-33.543462c-1.363408-3.934805-2.248574-8.092472-2.586089-12.403702 4.699794 5.3066 9.517395 9.227401 14.465311 11.72866-3.636559-.062709-7.527647.150424-11.672245.637617-.070613.0083-.139682.020872-.206977.037425zm-2.530756-20.957399C105.382404 19.940464 126.820438 0 152.922983 0 180.579756 0 203 22.385795 203 50.000073 203 77.573525 180.646001 99.933943 153.045617 100c.596909-10.205682-1.881453-18.286966-7.466567-24.134914.989704-.498207 1.99134-1.355572 3.215558-2.63568 1.043747-1.091398 2.290649-2.548133 3.746828-4.375948.645778.587677 1.461273 1.152718 2.389637 1.648655 3.454778 1.845562 7.895434 2.530234 12.578682 1.521013 1.199708-.258532 1.721228-1.676193.975253-2.651056-2.523949-3.298376-4.144735-8.138952-4.81495-14.534735 1.851542 4.248206 4.398431 7.455326 7.647196 9.582042 1.549524 2.261532 1.903417 3.741142 1.445264 4.475024-1.110057 1.778124-1.72775 4.460555-1.932733 8.094236-.076189 1.35059 1.401169 2.228308 2.553658 1.517161 6.517735-4.021792 10.534102-9.288631 11.95296-15.748077 1.398795-6.368114-.382361-12.89251-5.23828-19.49397l1.376814-.290444.668475-1.651786c1.415288-3.497145.213281-7.931424-3.110329-13.63325-5.579933-9.572664-15.930075-16.17738-31.266332-18.348426-12.069104-1.708538-26.665149 10.457447-44.711418 36.057293zm57.653774 12.621644c.6978 4.403677 1.89167 8.10043 3.596213 11.086252-2.934851.19811-5.630889-.396521-7.797239-1.553798-.819115-.437576-1.483595-.924662-1.902866-1.352182 1.133327-1.488682 2.367499-3.155095 3.704526-5.001123.804951-1.111393 1.604813-2.171038 2.399366-3.17915zm-8.736038 6.108598c-.608215.336346-.935741.81488-1.040456 1.353954-5.057721 6.511192-7.694889 8.812282-7.911503 6.90327-4.874734-3.249607-10.881179-5.732483-18.019336-7.448629-7.138157-1.716145-14.148317-6.714885-21.030481-14.99622 18.186913-26.372367 32.628599-38.80144 43.325059-37.287217 16.044691 2.271334 24.574127 9.399443 28.840562 16.718734 2.844291 4.879528 3.810819 8.44511 2.899585 10.696748-7.521395 1.586664-15.335433 7.976428-23.442113 19.169294-1.309233 1.807655-2.516339 3.437677-3.621317 4.890066zm23.633204 6.536886c1.385523-2.219374.664079-5.045553-1.734963-8.438025-.127868-.180818-.290405-.334502-.47819-.452146-2.974023-1.86317-5.304832-4.86929-6.983816-9.070216 2.908903-3.207332 6.68299-5.52367 11.354101-6.953355 4.04021 5.687163 5.441433 11.09317 4.299823 16.290432-.989688 4.50562-3.461351 8.341623-7.466955 11.536355.250869-1.269942.592107-2.243651 1.01-2.913045zm-24.121431-40.94799c-1.075059 5.684256 1.811477 9.675207 7.606059 10.660743l2.687762.457132.994863-2.534588c2.440225-6.216896-.743709-10.619034-7.671165-11.292514l-3.049063-.296427-.568456 3.005654zm3.292775.620847c4.830442.469611 6.455771 2.716805 4.875985 6.741583-3.972881-.675703-5.59821-2.922897-4.875985-6.741583z"/>
  </g>
</svg>
